<svg xmlns="http://www.w3.org/2000/svg" viewBox="0 0 256 256" role="img" aria-labelledby="title desc">
  <title id="title">AI$HA Logo Opção 3</title>
  <desc id="desc">Carteira digital com chip e moeda representando finanças pessoais inteligentes.</desc>
  <defs>
    <linearGradient id="bg" x1="0%" y1="0%" x2="100%" y2="100%">
      <stop offset="0%" stop-color="#3A6073"/>
      <stop offset="100%" stop-color="#16222A"/>
    </linearGradient>
    <linearGradient id="wallet" x1="0%" y1="0%" x2="100%" y2="100%">
      <stop offset="0%" stop-color="#F8FBFD"/>
      <stop offset="100%" stop-color="#DDEAF2"/>
    </linearGradient>
  </defs>
  <rect width="256" height="256" rx="52" fill="url(#bg)"/>
  <rect x="44" y="74" width="168" height="112" rx="18" fill="url(#wallet)"/>
  <rect x="44" y="102" width="168" height="28" fill="#C7DAE6"/>
  <rect x="150" y="118" width="62" height="52" rx="12" fill="#2A4D69"/>
  <circle cx="175" cy="144" r="9" fill="#9CE3E7"/>
  <rect x="68" y="94" width="62" height="72" rx="10" fill="#ffffff"/>
  <path d="M78 118h42m-42 16h42m-42 16h30" stroke="#3A6073" stroke-width="6" stroke-linecap="round"/>
  <circle cx="194" cy="62" r="22" fill="#8EE6D9"/>
  <text x="186" y="70" font-size="24" font-family="Source Sans 3, Segoe UI, sans-serif" font-weight="700" fill="#1F3B4D">$</text>
  <path d="M194 24v10m0 56v10m38-38h-10m-56 0h-10m54-24l-7 7m-32 32l-7 7m46 0l-7-7m-32-32l-7-7" stroke="#8EE6D9" stroke-width="4" stroke-linecap="round"/>
</svg>
